<?xml version="1.0" encoding="iso-8859-1"?>
<!-- Generator: Adobe Illustrator 17.1.0, SVG Export Plug-In . SVG Version: 6.00 Build 0)  -->
<!DOCTYPE svg PUBLIC "-//W3C//DTD SVG 1.1//EN" "http://www.w3.org/Graphics/SVG/1.1/DTD/svg11.dtd">
<svg version="1.1" id="Capa_1" xmlns="http://www.w3.org/2000/svg" xmlns:xlink="http://www.w3.org/1999/xlink" x="0px" y="0px"
	 viewBox="0 0 477.88 477.88" style="enable-background:new 0 0 477.88 477.88;" xml:space="preserve">
<path d="M396.794,0H61.085c-2.761,0-5,2.239-5,5v407.028v42.255c0,2.762,2.239,5,5,5h12.348v13.597c0,1.912,1.09,3.657,2.809,4.495
	c0.696,0.339,1.445,0.505,2.191,0.505c1.096,0,2.184-0.36,3.08-1.061l12.172-9.516l12.172,9.516
	c1.508,1.178,3.553,1.393,5.271,0.556c1.718-0.838,2.809-2.583,2.809-4.495v-13.597h282.857c13.785,0,25-11.215,25-25v-42.255V25
	C421.794,11.215,410.58,0,396.794,0z M66.085,10h40.839v354.29c0,2.762,2.239,5,5,5s5-2.238,5-5V10h279.87c8.271,0,15,6.729,15,15
	v367.028c0,8.271-6.729,15-15,15h-279.87v-7.716c0-2.762-2.239-5-5-5s-5,2.238-5,5v7.716H66.085V10z M103.937,462.625l-7.172-5.606
	c-0.905-0.708-1.992-1.061-3.08-1.061s-2.175,0.354-3.08,1.061l-7.172,5.606v-29.205h20.503V462.625z M396.794,449.283H113.937
	v-4.332h286.006c2.761,0,5-2.239,5-5s-2.239-5-5-5H113.937v-3.008h286.006c2.761,0,5-2.238,5-5c0-2.761-2.239-5-5-5H108.937
	c-1.386,0-2.639,0.565-3.545,1.477H78.434c-2.761,0-5,2.238-5,5v20.863h-7.348v-32.255h45.723c0.04,0.001,0.076,0.012,0.116,0.012
	c0.04,0,0.077-0.011,0.116-0.012h284.754c5.624,0,10.819-1.867,15-5.013v22.268C411.794,442.554,405.065,449.283,396.794,449.283z
	 M172.763,193.011h183.193c8.271,0,15-6.729,15-15v-71.505c0-8.271-6.729-15-15-15H172.763c-8.271,0-15,6.729-15,15v71.505
	C157.763,186.282,164.492,193.011,172.763,193.011z M167.763,106.505c0-2.757,2.243-5,5-5h183.193c2.757,0,5,2.243,5,5v71.505
	c0,2.757-2.243,5-5,5H172.763c-2.757,0-5-2.243-5-5V106.505z M188.266,120.418c0-2.761,2.239-5,5-5h142.187c2.761,0,5,2.239,5,5
	s-2.239,5-5,5H193.266C190.505,125.418,188.266,123.179,188.266,120.418z M188.266,140.754c0-2.761,2.239-5,5-5h142.187
	c2.761,0,5,2.239,5,5s-2.239,5-5,5H193.266C190.505,145.754,188.266,143.515,188.266,140.754z M188.266,161.089c0-2.761,2.239-5,5-5
	h142.187c2.761,0,5,2.239,5,5c0,2.762-2.239,5-5,5H193.266C190.505,166.089,188.266,163.851,188.266,161.089z"/>
<g>
</g>
<g>
</g>
<g>
</g>
<g>
</g>
<g>
</g>
<g>
</g>
<g>
</g>
<g>
</g>
<g>
</g>
<g>
</g>
<g>
</g>
<g>
</g>
<g>
</g>
<g>
</g>
<g>
</g>
</svg>
